<?xml version="1.0" encoding="UTF-8"?>
<!DOCTYPE svg PUBLIC "-//W3C//DTD SVG 1.1//EN" "http://www.w3.org/Graphics/SVG/1.1/DTD/svg11.dtd">
<!-- Creator: CorelDRAW X8 -->
<svg xmlns="http://www.w3.org/2000/svg" xml:space="preserve" width="125.9mm" height="109.4mm" version="1.1" style="shape-rendering:geometricPrecision; text-rendering:geometricPrecision; image-rendering:optimizeQuality; fill-rule:evenodd; clip-rule:evenodd"
viewBox="0 0 12590 10940"
 xmlns:xlink="http://www.w3.org/1999/xlink">
 <defs>
  <style type="text/css">
   <![CDATA[
    .fil1 {fill:#FF9203}
    .fil0 {fill:#FFD75D}
    .fil2 {fill:#FFA41B;fill-rule:nonzero}
    .fil3 {fill:#FFC748;fill-rule:nonzero}
   ]]>
  </style>
 </defs>
 <g id="Capa_x0020_1">
  <metadata id="CorelCorpID_0Corel-Layer"/>
  <g id="_1838907803040">
   <path class="fil0" d="M4629 4539l-137 -124c-692,-699 -1509,-304 -2689,-1087l-785 -598c236,886 1597,1496 1717,1660 -556,25 -358,33 -925,-48 18,116 312,309 416,362 552,285 1321,92 2150,279 -65,188 -357,572 -477,726 -177,225 -339,424 -643,571l685 68c-1511,561 -1162,1913 -1179,2004 122,-784 585,-1766 1314,-2008 179,-60 443,-69 669,-138 634,-194 1182,-616 1182,-1430 0,-387 -357,-948 -217,-1207 166,-55 229,41 395,101 -55,-961 -1365,-821 -1570,-1621l-56 -186c-31,218 -53,332 64,524 75,124 176,279 272,328 -192,-34 -256,-144 -416,-198 147,239 377,373 624,532l-445 -44c45,64 8,11 54,65 4,5 46,50 55,57 128,114 341,182 486,253 -141,210 -103,370 -348,784l-51 75c-678,-1261 -2370,-945 -3701,-2122 -135,-119 -284,-319 -430,-413 259,882 983,1337 1776,1642 280,108 2364,800 2210,1193z"/>
   <path class="fil1" d="M6121 5187c353,-37 67,-272 1677,-308 479,-11 815,-5 1198,-282 53,-38 102,-81 137,-110 89,-77 90,-46 106,-155 -584,110 -340,82 -926,54l98 -91c35,-25 90,-52 134,-77 564,-328 1274,-827 1488,-1491l-916 686c-323,208 -710,361 -1159,427 -1078,159 -1491,510 -1837,1347z"/>
   <path class="fil1" d="M6066 4881c168,-168 235,-545 970,-904 1212,-594 2940,-769 3369,-2278 -450,297 -520,830 -2356,1387 -483,146 -953,320 -1284,587 -302,243 -638,669 -699,1208z"/>
   <path class="fil0" d="M3887 7776c135,128 291,198 368,403 343,919 -1337,1816 -2002,659 -249,-434 -204,-775 -211,-1307 -138,159 -239,548 -239,808 0,1046 1158,1803 2221,1095 654,-436 532,-1522 -137,-1658z"/>
   <path class="fil1" d="M7839 2972c637,-141 2359,-945 2493,-1800 64,-409 -213,-888 -472,-932 477,870 96,1236 -405,1712 -469,447 -1519,887 -1616,1020z"/>
   <path class="fil0" d="M709 1036c0,936 1853,1791 2500,1935 -179,-221 -2248,-954 -2248,-2076 0,-279 127,-467 228,-658 -239,60 -480,445 -480,799z"/>
   <path class="fil0" d="M568 6871c634,889 1645,511 1968,-78 -739,288 -1246,502 -1968,78z"/>
   <path class="fil0" d="M2335 8526c-36,-982 219,-1273 798,-1788l41 -40c3,-13 14,-14 20,-22 -1325,217 -1075,1547 -859,1850z"/>
   <path class="fil0" d="M3350 6019c-664,-18 -1155,107 -1895,-156 -223,-80 -327,-164 -499,-239 176,317 480,538 986,597 402,47 1093,-48 1408,-202z"/>
   <path class="fil0" d="M666 5975c484,1127 2237,755 2599,529 -538,39 -963,112 -1517,22 -683,-110 -728,-259 -1082,-551z"/>
  </g>
  <path class="fil2" d="M5386 6978c0,41 1,77 2,108 1,30 3,56 5,78 1,22 3,41 6,56 3,15 5,27 8,37l0 3 -173 0 0 -3c3,-10 6,-22 9,-37 2,-15 5,-34 6,-56 2,-22 4,-48 5,-78 1,-31 1,-67 1,-108l0 -469c0,-40 0,-76 -1,-106 -1,-31 -3,-57 -5,-80 -1,-22 -4,-41 -6,-55 -3,-15 -6,-28 -9,-38l0 -3c40,0 81,0 121,0 41,-1 81,-1 119,-1 39,0 75,-1 110,-1 34,-1 65,-2 94,-2 27,-1 51,-2 70,-3 19,-2 33,-3 41,-4l-35 96c-16,-5 -34,-9 -56,-12 -18,-3 -40,-6 -66,-8 -27,-3 -57,-4 -91,-4 -11,0 -26,0 -43,1 -17,0 -34,1 -51,2 -19,1 -39,2 -61,3l0 364c50,-1 95,-2 137,-4 41,-3 76,-5 106,-8 35,-3 66,-6 94,-10l-22 105c-36,-5 -72,-9 -109,-12 -32,-4 -66,-7 -103,-10 -36,-2 -70,-3 -103,-3l0 262zm536 -751c60,0 119,0 179,-1 59,0 113,-1 163,-1 49,-1 92,-2 127,-4 35,-1 58,-3 71,-5l-35 96c-16,-5 -35,-9 -56,-12 -18,-3 -40,-6 -66,-8 -27,-3 -57,-4 -91,-4 -11,0 -25,0 -41,1 -16,0 -32,1 -47,2 -17,1 -35,2 -52,3l0 393c49,0 94,-1 134,-4 39,-2 73,-5 101,-7 33,-3 62,-6 87,-10l-23 104c-33,-4 -67,-8 -101,-12 -30,-3 -62,-6 -98,-9 -34,-3 -68,-4 -100,-4l0 452c56,0 109,-3 156,-7 47,-5 89,-11 125,-17 41,-7 79,-15 113,-24l-21 117c-6,-1 -15,-1 -26,-1 -12,-1 -25,-1 -39,-2 -14,0 -29,-1 -44,-1 -16,0 -31,-1 -45,-1 -14,0 -26,0 -37,-1 -11,0 -18,0 -23,0l-311 0 0 -3c3,-10 5,-22 8,-37 2,-15 5,-34 7,-56 2,-22 3,-48 4,-78 1,-31 2,-67 2,-108l0 -469c0,-40 -1,-76 -2,-106 -1,-31 -2,-57 -4,-80 -2,-22 -5,-41 -7,-55 -3,-15 -5,-28 -8,-38l0 -3zm454 -213c-36,12 -71,24 -108,38 -16,6 -32,12 -50,18 -17,7 -34,14 -52,22 -18,8 -36,15 -54,23 -18,8 -35,17 -51,25l-16 -26c31,-21 62,-44 93,-68 31,-25 59,-48 85,-69 30,-25 59,-51 87,-76l66 113zm309 213l742 790 0 -508c0,-40 0,-76 -1,-106 -1,-31 -3,-57 -5,-80 -2,-22 -4,-41 -7,-55 -2,-15 -5,-28 -8,-38l0 -3 128 0 0 3c-3,10 -5,23 -7,38 -3,14 -5,33 -7,55 -2,23 -3,49 -4,80 -1,30 -2,66 -2,106l0 766 -25 0 -742 -789 0 492c0,41 1,77 2,108 1,30 2,56 4,78 2,22 4,41 6,56 3,15 5,27 8,37l0 3 -128 0 0 -3c3,-10 6,-22 8,-37 3,-15 5,-34 7,-56 2,-22 4,-48 5,-78 1,-31 1,-67 1,-108l0 -469c0,-40 0,-76 -1,-106 -1,-31 -3,-57 -5,-80 -2,-22 -4,-41 -7,-55 -2,-15 -5,-28 -8,-38l0 -3 46 0zm1056 1030c3,-10 6,-22 8,-37 3,-15 5,-34 7,-56 2,-22 3,-48 4,-78 1,-31 1,-67 1,-108l0 -469c0,-40 0,-76 -1,-106 -1,-31 -2,-57 -4,-80 -2,-22 -4,-41 -7,-55 -2,-15 -5,-28 -8,-38l0 -3 173 0 0 3c-3,10 -6,23 -9,38 -3,14 -5,33 -6,55 -2,23 -3,49 -5,80 -1,30 -1,66 -1,106l0 469c0,41 0,77 1,108 2,30 3,56 5,78 1,22 3,41 6,56 3,15 6,27 9,37l0 3 -173 0 0 -3zm770 -449l-255 324c-9,11 -19,23 -28,35 -9,13 -17,25 -24,36 -7,12 -13,22 -18,32 -4,10 -7,18 -7,25l-140 0 0 -3c11,-9 26,-23 45,-42 20,-18 41,-42 63,-70l317 -399 -326 -427c-17,-23 -35,-43 -52,-58 -18,-16 -31,-26 -39,-31l0 -3 225 0c0,6 1,13 3,23 1,9 5,19 9,32 5,12 12,25 20,40 9,15 20,31 33,49l208 272 230 -287c9,-11 17,-22 26,-34 8,-13 15,-25 22,-37 6,-12 12,-23 16,-33 4,-10 6,-18 6,-25l140 0 0 3c-5,4 -10,9 -16,14 -6,5 -13,11 -20,19 -7,8 -16,17 -25,28 -9,10 -19,22 -31,37l-300 379 336 439c22,30 44,55 64,74 20,19 34,32 43,37l0 3 -224 0c0,-11 -4,-29 -13,-55 -9,-25 -26,-55 -51,-88l-237 -309z"/>
  <path class="fil3" d="M4727 8076c3,-4 7,-10 11,-19 3,-9 6,-20 9,-33 3,-19 6,-41 10,-65 4,-24 7,-49 11,-76 4,-26 8,-53 12,-81 4,-28 8,-55 12,-82 4,-27 7,-53 11,-78 3,-25 6,-48 9,-68 3,-21 5,-39 7,-54 2,-15 3,-27 4,-35l52 0 260 486 258 -486 39 0 68 491c2,16 4,29 6,40 3,11 5,21 7,28 2,8 4,15 7,20 2,5 4,9 5,12l0 2 -104 0 0 -2c2,-3 3,-7 4,-14 1,-7 2,-16 2,-25 0,-4 0,-7 0,-11 -1,-4 -1,-8 -2,-12l-52 -396 -244 458 -29 -3 -245 -460c-10,66 -18,126 -25,182 -3,23 -6,47 -9,70 -3,24 -6,46 -8,66 -3,21 -5,39 -6,54 -1,16 -2,27 -2,35 0,9 0,18 1,25 0,7 1,13 1,18 1,6 2,11 3,15l-83 0 0 -2zm895 0c2,-5 3,-13 5,-21 1,-9 2,-19 3,-32 2,-13 2,-28 3,-45 0,-18 1,-38 1,-62l0 -269c0,-23 -1,-44 -1,-61 -1,-18 -1,-33 -3,-45 -1,-13 -2,-24 -3,-33 -2,-8 -3,-15 -5,-21l0 -2 99 0 0 2c-2,6 -3,13 -5,21 -1,9 -3,20 -4,33 0,12 -1,27 -2,45 -1,17 -1,38 -1,61l0 269c0,24 0,44 1,62 1,17 2,32 2,45 1,13 3,23 4,32 2,8 3,16 5,21l0 2 -99 0 0 -2zm244 -591l426 453 0 -291c0,-23 0,-44 -1,-61 0,-18 -1,-33 -2,-45 -2,-13 -3,-24 -4,-33 -2,-8 -3,-15 -5,-21l0 -2 74 0 0 2c-2,6 -4,13 -5,21 -1,9 -3,20 -4,33 -1,12 -2,27 -2,45 -1,17 -1,38 -1,61l0 439 -14 0 -426 -452 0 282c0,24 0,44 1,62 0,17 1,32 2,45 1,13 2,23 4,32 1,8 3,16 4,21l0 2 -73 0 0 -2c1,-5 3,-13 4,-21 2,-9 3,-19 4,-32 1,-13 2,-28 3,-45 0,-18 1,-38 1,-62l0 -269c0,-23 -1,-44 -1,-61 -1,-18 -2,-33 -3,-45 -1,-13 -2,-24 -4,-33 -1,-8 -3,-15 -4,-21l0 -2 26 0zm606 591c2,-5 3,-13 5,-21 1,-9 2,-19 4,-32 1,-13 1,-28 2,-45 0,-18 1,-38 1,-62l0 -269c0,-23 -1,-44 -1,-61 -1,-18 -1,-33 -2,-45 -2,-13 -3,-24 -4,-33 -2,-8 -3,-15 -5,-21l0 -2 99 0 0 2c-2,6 -3,13 -5,21 -1,9 -3,20 -3,33 -1,12 -2,27 -3,45 -1,17 -1,38 -1,61l0 269c0,24 0,44 1,62 1,17 2,32 3,45 0,13 2,23 3,32 2,8 3,16 5,21l0 2 -99 0 0 -2zm468 -496l-9 0c-2,-7 -6,-14 -10,-22 -5,-8 -11,-15 -19,-22 -8,-7 -18,-13 -29,-18 -11,-5 -24,-7 -39,-7 -14,0 -26,2 -36,6 -11,4 -20,10 -27,17 -7,8 -12,17 -16,27 -3,10 -5,21 -5,34 0,20 6,39 17,57 11,18 25,36 42,53 17,18 35,35 54,53 20,18 38,36 55,55 17,19 31,39 42,60 11,21 17,43 17,67 0,18 -3,36 -10,54 -6,18 -15,34 -28,49 -13,14 -30,26 -50,35 -21,8 -45,13 -73,13 -16,0 -31,-1 -45,-4 -14,-3 -27,-7 -39,-11 -12,-4 -23,-9 -33,-14 -9,-5 -17,-10 -23,-14l10 -91 10 0c3,13 8,25 15,37 7,12 15,22 25,31 10,9 22,16 35,22 13,5 27,8 42,8 14,0 27,-3 38,-7 11,-4 21,-10 29,-18 8,-7 14,-16 18,-27 5,-10 7,-22 7,-34 0,-17 -3,-33 -10,-48 -6,-15 -14,-29 -25,-42 -10,-13 -22,-26 -35,-39 -13,-12 -27,-24 -40,-37 -14,-13 -27,-25 -41,-39 -13,-13 -24,-27 -35,-42 -10,-15 -18,-31 -25,-48 -6,-18 -9,-37 -9,-57 0,-22 4,-42 12,-59 9,-18 20,-33 34,-45 14,-12 29,-22 47,-29 18,-6 36,-9 55,-9 14,0 26,1 38,3 11,2 22,5 31,8 9,3 17,6 24,9 7,3 13,5 17,7l-3 78zm294 -58c-32,0 -62,1 -88,4 -26,3 -49,6 -68,9 -22,5 -41,9 -59,14l12 -67c3,0 8,1 15,1 7,0 14,0 22,1 8,0 17,0 26,0 9,0 17,0 25,1 8,0 15,0 21,0 7,0 11,0 14,0l236 0c3,0 7,0 13,0 7,0 14,0 22,0 8,-1 16,-1 25,-1 9,0 18,0 26,0 8,-1 15,-1 22,-1 7,0 12,-1 15,-1l12 67c-18,-5 -38,-9 -60,-14 -19,-3 -41,-6 -68,-9 -26,-3 -55,-4 -88,-4l0 394c0,24 1,44 1,62 1,17 2,32 3,45 1,13 2,23 4,32 1,8 3,16 4,21l0 2 -99 0 0 -2c2,-5 4,-13 5,-21 1,-9 3,-19 4,-32 1,-13 2,-28 2,-45 1,-18 1,-38 1,-62l0 -394zm350 -37c34,0 69,0 103,0 34,0 65,-1 93,-1 29,0 53,-1 73,-2 20,-1 34,-2 41,-3l-20 55c-9,-3 -20,-5 -32,-7 -11,-2 -23,-3 -38,-5 -15,-1 -33,-2 -52,-2 -7,0 -15,0 -24,1 -9,0 -18,1 -27,1 -10,1 -20,1 -30,2l0 225c28,0 54,-1 77,-2 23,-1 42,-3 58,-4 19,-2 36,-4 50,-6l-13 60c-19,-2 -38,-5 -58,-7 -17,-2 -36,-4 -56,-5 -20,-2 -39,-2 -58,-2l0 259c33,0 63,-2 90,-4 27,-3 51,-6 71,-10 24,-4 46,-8 65,-13l-12 66c-3,0 -8,0 -15,0 -6,-1 -14,-1 -22,-1 -8,0 -16,-1 -25,-1 -9,0 -18,0 -26,0 -8,0 -15,-1 -21,-1 -6,0 -11,0 -13,0l-179 0 0 -2c2,-5 3,-13 5,-21 1,-9 2,-19 3,-32 2,-13 2,-28 3,-45 1,-18 1,-38 1,-62l0 -269c0,-23 0,-44 -1,-61 -1,-18 -1,-33 -3,-45 -1,-13 -2,-24 -3,-33 -2,-8 -3,-15 -5,-21l0 -2zm502 431c0,24 0,44 1,62 1,17 2,32 3,45 1,13 2,23 3,32 2,8 3,16 5,21l0 2 -99 0 0 -2c2,-5 3,-13 5,-21 1,-9 2,-19 3,-32 2,-13 2,-28 3,-45 1,-18 1,-38 1,-62l0 -269c0,-23 0,-44 -1,-61 -1,-18 -1,-33 -3,-45 -1,-13 -2,-24 -3,-33 -2,-8 -3,-15 -5,-21l0 -2c5,1 11,1 17,2 5,0 11,1 18,1 6,0 13,0 20,0 11,0 25,-1 44,-4 18,-2 41,-4 69,-4 27,0 51,4 74,11 22,7 42,18 58,31 17,14 30,31 39,51 9,20 14,43 14,68 0,20 -3,38 -8,55 -5,17 -12,33 -21,46 -9,14 -21,26 -33,37 -13,11 -28,20 -44,27l145 204c7,10 14,18 20,26 6,7 12,14 18,19 6,5 11,10 16,13 6,4 11,6 16,8l0 2 -119 0c-1,-5 -3,-12 -8,-21 -5,-8 -10,-17 -16,-26l-146 -206c-14,2 -28,2 -42,2 -14,0 -29,-1 -44,-4l0 93zm0 -125c27,5 52,6 74,2 23,-3 42,-11 58,-23 16,-12 29,-29 38,-50 9,-20 13,-46 13,-75 0,-21 -2,-40 -7,-57 -4,-17 -11,-31 -21,-43 -9,-11 -21,-20 -35,-27 -14,-6 -30,-10 -49,-10 -12,0 -22,1 -31,2 -9,1 -16,2 -22,3 -7,1 -13,3 -18,5l0 273zm417 285c1,-5 3,-13 4,-21 2,-9 3,-19 4,-32 1,-13 2,-28 2,-45 1,-18 1,-38 1,-62l0 -269c0,-23 0,-44 -1,-61 0,-18 -1,-33 -2,-45 -1,-13 -2,-24 -4,-33 -1,-8 -3,-15 -4,-21l0 -2 99 0 0 2c-2,6 -4,13 -5,21 -2,9 -3,20 -4,33 -1,12 -2,27 -2,45 -1,17 -1,38 -1,61l0 269c0,24 0,44 1,62 0,17 1,32 2,45 1,13 2,23 4,32 1,8 3,16 5,21l0 2 -99 0 0 -2zm631 2l0 -2c0,-1 1,-3 1,-6 0,-2 0,-5 0,-7 0,-9 -1,-18 -3,-28 -3,-11 -7,-24 -14,-39l-50 -113c-15,0 -36,0 -61,0 -26,0 -54,0 -83,0 -22,0 -43,0 -63,0 -21,0 -39,0 -55,0l-48 110c-4,10 -8,21 -13,33 -5,12 -7,24 -7,37 0,3 0,6 1,9 0,2 1,4 2,4l0 2 -85 0 0 -2c5,-5 11,-14 19,-27 7,-14 15,-31 24,-51l237 -525 33 0 225 505c5,12 10,24 16,35 6,11 11,21 16,30 5,8 9,16 13,22 4,6 7,10 8,11l0 2 -113 0zm-268 -231c16,0 32,0 49,0 17,0 33,0 49,-1 17,0 32,0 47,0 15,0 28,0 40,-1l-116 -262 -114 264 45 0zm519 195c33,0 63,-2 90,-4 27,-3 51,-6 71,-10 24,-4 46,-8 65,-13l-12 66c-3,0 -8,0 -15,0 -6,-1 -14,-1 -22,-1 -8,0 -17,-1 -25,-1 -9,0 -18,0 -26,0 -8,0 -15,-1 -21,-1 -6,0 -11,0 -14,0l-178 0 0 -2c1,-5 3,-13 5,-21 1,-9 2,-19 3,-32 2,-13 2,-28 3,-45 1,-18 1,-38 1,-62l0 -269c0,-23 0,-44 -1,-61 -1,-18 -1,-33 -3,-45 -1,-13 -2,-24 -3,-33 -2,-8 -4,-15 -5,-21l0 -2 99 0 0 2c-2,6 -3,13 -5,21 -1,9 -2,20 -3,33 -1,12 -2,27 -3,45 -1,17 -1,38 -1,61l0 395z"/>
 </g>
</svg>
